<?xml version="1.0" standalone="no"?>
<!DOCTYPE svg PUBLIC "-//W3C//DTD SVG 20010904//EN"
 "http://www.w3.org/TR/2001/REC-SVG-20010904/DTD/svg10.dtd">
<svg version="1.0" xmlns="http://www.w3.org/2000/svg"
 width="600.000000pt" height="600.000000pt" viewBox="0 0 600.000000 600.000000"
 preserveAspectRatio="xMidYMid meet">
<metadata>
Created by potrace 1.14, written by Peter Selinger 2001-2017
</metadata>
<g transform="translate(0.000000,600.000000) scale(0.100000,-0.100000)"
fill="#000000" stroke="none">
<path d="M3035 5804 c-200 -31 -571 -147 -758 -238 -331 -160 -567 -448 -702
-856 -61 -185 -115 -465 -152 -790 l-8 -65 -70 -10 -70 -10 -6 -45 c-4 -25 -9
-77 -12 -115 -3 -39 -18 -223 -33 -410 l-28 -340 33 -210 c21 -138 37 -214 47
-221 18 -15 19 -125 1 -185 -8 -24 -38 -87 -68 -139 -93 -162 -122 -254 -140
-442 -44 -457 174 -1070 496 -1393 159 -160 326 -242 471 -232 185 13 314 28
368 42 142 38 326 136 436 233 301 266 380 757 205 1280 -133 398 -373 698
-667 837 -114 54 -186 69 -327 70 l-123 0 6 90 c4 50 16 176 27 280 11 105 23
238 26 298 6 119 0 136 -58 156 -35 12 -27 56 -84 -469 -43 -390 -52 -463 -54
-415 -1 18 118 1092 140 1260 5 39 7 75 5 81 -3 7 -34 22 -69 33 l-65 22 24
92 c167 619 352 991 621 1248 44 42 107 95 141 117 56 39 66 42 126 42 153 0
420 -68 628 -159 400 -176 735 -607 906 -1166 43 -139 126 -474 120 -481 -2
-1 -28 -8 -58 -16 -52 -12 -55 -15 -53 -43 2 -17 7 -84 13 -150 l10 -120 -25
-18 c-30 -23 -31 -53 -10 -327 21 -274 27 -246 -50 -254 -78 -8 -181 -38 -255
-76 -315 -159 -514 -565 -471 -964 15 -138 42 -230 101 -351 93 -189 207 -308
375 -391 135 -66 194 -79 365 -79 176 1 244 16 385 86 116 57 257 166 327 253
84 105 152 259 177 400 14 76 14 242 0 326 -16 104 -68 243 -119 327 -27 43
-85 120 -129 172 -102 117 -113 139 -118 226 -2 44 0 63 5 50 9 -21 16 30 28
228 6 98 -11 661 -22 715 -4 20 -10 22 -68 22 l-63 0 -7 143 c-25 531 -95 859
-252 1186 -82 172 -169 302 -279 419 -113 119 -229 206 -385 286 -140 73 -236
106 -384 137 -97 20 -306 33 -371 23z m-1395 -2120 c-63 -7 -133 -12 -155 -12
-53 1 156 25 220 25 28 0 -2 -5 -65 -13z m155 -1 c-4 -10 -17 -128 -30 -263
-27 -296 -32 -272 -8 48 13 186 19 232 31 232 10 0 12 -6 7 -17z m-372 -20
c-13 -2 -33 -2 -45 0 -13 2 -3 4 22 4 25 0 35 -2 23 -4z m-90 -10 c-13 -2 -33
-2 -45 0 -13 2 -3 4 22 4 25 0 35 -2 23 -4z m584 -335 c-3 -8 -6 -5 -6 6 -1
11 2 17 5 13 3 -3 4 -12 1 -19z m2880 -145 c-3 -10 -5 -4 -5 12 0 17 2 24 5
18 2 -7 2 -21 0 -30z m-3060 -75 c-2 -13 -4 -3 -4 22 0 25 2 35 4 23 2 -13 2
-33 0 -45z m3070 -55 c-2 -16 -4 -3 -4 27 0 30 2 43 4 28 2 -16 2 -40 0 -55z
m10 -120 c-2 -16 -4 -5 -4 22 0 28 2 40 4 28 2 -13 2 -35 0 -50z m10 -140 c-2
-16 -4 -5 -4 22 0 28 2 40 4 28 2 -13 2 -35 0 -50z m-2974 -478 c-7 -21 -13
-19 -13 6 0 11 4 18 10 14 5 -3 7 -12 3 -20z m-255 -342 c-10 -2 -26 -2 -35 0
-10 3 -2 5 17 5 19 0 27 -2 18 -5z m728 -405 c27 -52 46 -108 39 -108 -7 0
-45 78 -61 122 -19 53 -9 47 22 -14z m-237 -183 c0 -5 -8 6 -19 25 -11 19 -19
40 -19 45 0 6 8 -6 19 -25 11 -19 19 -39 19 -45z"/>
</g>
</svg>
